<?xml version="1.0" encoding="iso-8859-1"?>
<!DOCTYPE svg PUBLIC "-//W3C//DTD SVG 1.1//EN" "http://www.w3.org/Graphics/SVG/1.1/DTD/svg11.dtd">
<svg fill="#000000" height="800px" width="800px" version="1.1" id="Capa_1" xmlns="http://www.w3.org/2000/svg" xmlns:xlink="http://www.w3.org/1999/xlink" 
	 viewBox="0 0 58 58" xml:space="preserve">
<g>
	<path d="M28.496,23.3c3.591,0,6.894,0.719,9.565,1.918c0.274-0.545,0.435-1.119,0.435-1.718c0-3.314-4.477-6-10-6
		c-5.523,0-10,2.686-10,6c0,0.599,0.161,1.173,0.435,1.718C21.602,24.019,24.905,23.3,28.496,23.3z"/>
	<path d="M5.746,32.369c0.047,1.061,0.096,2.156,0.188,2.539c0.166,0.686,0.646,1.199,1.252,1.34
		c0.278,0.065,0.752,0.087,1.254,0.109c1.774,0.08,4.742,0.215,5.47,2.931c0.128,0.477,0.235,0.874,0.29,1.292
		c0.026,0.198,0.15,0.287,0.202,0.315c0.089,0.05,0.178,0.051,0.274,0.006c0.167-0.077,0.561-0.429,0.876-0.711
		c0.873-0.779,1.959-1.749,3.249-1.955c1.647-0.265,2.845-0.051,3.661,0.651c1.159,0.996,1.145,2.644,1.134,3.967
		c-0.006,0.692-0.013,1.555,0.194,1.863c0.334,0.498,0.961,0.647,1.523,0.368c0.062-0.059,0.247-0.401,0.369-0.628
		c0.458-0.847,1.263-2.259,3.019-2.234c2.255,0.038,2.818,1.646,3.088,2.42c0.043,0.123,0.099,0.282,0.142,0.376
		c0.651,0.243,1.397,0.044,1.773-0.484c0.309-0.434,0.636-1.105,0.983-1.817c0.971-1.996,2.072-4.258,4.163-4.488
		c2.568-0.287,3.759,1.32,4.472,2.276c0.16,0.215,0.38,0.509,0.478,0.574c0.102,0.054,0.187,0.026,0.228,0.006
		c0.066-0.034,0.105-0.095,0.117-0.179c0.169-1.273,0.484-3.642,2.318-4.829c1.174-0.762,2.735-0.873,4.639-0.331
		c0.108-0.125,0.272-0.409,0.364-0.77c0.171-0.674,0.324-1.651,0.487-2.687c0.556-3.542,1.06-6.141,2.418-7.082l3.421-3.311
		C56.098,11.272,43.801,3,28.921,3C14.401,3,2.35,10.963,0.309,21.3l3.893,3.747C5.374,25.946,5.576,28.545,5.746,32.369z
		 M28.496,16.5c6.168,0,11,3.075,11,7c0,0.68-0.161,1.363-0.478,2.036c-0.013,0.046-0.029,0.09-0.05,0.133
		c-1.442,2.89-5.65,4.831-10.472,4.831s-9.03-1.941-10.472-4.831c-0.026-0.053-0.047-0.107-0.064-0.163
		c-0.308-0.662-0.464-1.337-0.464-2.006C17.496,19.575,22.328,16.5,28.496,16.5z"/>
	<path d="M55.695,26.711c-0.053,0.052-0.112,0.097-0.175,0.136c-0.76,0.463-1.3,3.904-1.59,5.754
		c-0.17,1.082-0.331,2.104-0.524,2.868c-0.09,0.354-0.455,1.553-1.377,2.075c-0.426,0.243-0.894,0.297-1.353,0.16
		c-1.382-0.412-2.432-0.395-3.125,0.052c-1.06,0.687-1.286,2.394-1.422,3.413c-0.096,0.728-0.538,1.36-1.182,1.692
		c-0.65,0.337-1.43,0.329-2.088-0.02c-0.472-0.249-0.795-0.683-1.138-1.142c-0.628-0.844-1.229-1.642-2.65-1.483
		c-0.994,0.109-1.875,1.92-2.583,3.375c-0.384,0.789-0.747,1.535-1.153,2.104c-0.961,1.344-2.786,1.803-4.339,1.098
		c-0.679-0.311-0.908-0.966-1.092-1.491c-0.256-0.731-0.373-1.065-1.233-1.08c-0.506-0.025-0.741,0.288-1.226,1.185
		c-0.309,0.572-0.629,1.165-1.237,1.468c-0.476,0.237-0.977,0.351-1.469,0.351c-1.023,0-2.001-0.493-2.607-1.395
		c-0.551-0.822-0.542-1.926-0.533-2.994c0.008-0.957,0.017-2.042-0.438-2.434c-0.333-0.287-1.04-0.352-2.04-0.193
		c-0.712,0.114-1.556,0.867-2.233,1.473c-0.499,0.445-0.93,0.831-1.367,1.033c-0.675,0.313-1.434,0.287-2.081-0.068
		c-0.664-0.365-1.121-1.042-1.221-1.809c-0.037-0.286-0.123-0.603-0.212-0.938c-0.349-1.302-1.796-1.462-3.655-1.546
		c-0.622-0.028-1.16-0.053-1.616-0.159c-1.348-0.312-2.4-1.393-2.745-2.818c-0.138-0.57-0.184-1.607-0.242-2.919
		c-0.07-1.571-0.233-5.251-0.78-5.841c-0.049-0.032-0.061-0.042-0.103-0.083l-2.844-2.737C0.013,24.002,0,24.205,0,24.41
		l0.015,9.628C0.015,45.792,12.712,55,28.921,55C44.955,55,58,45.411,58,33.624v-9.143L55.695,26.711z"/>
</g>
</svg>